Coordinates
version=1
nRows=17
nColumns=23
inDegrees=yes

Units are S.I. units (second, meters, Newtons, ...)
If the header above contains a line with 'inDegrees', this indicates whether rotational values are in degrees (yes) or radians (no).

endheader
time	pelvis_tilt	pelvis_list	pelvis_rotation	pelvis_tx	pelvis_ty	pelvis_tz	hip_flexion_r	hip_adduction_r	hip_rotation_r	knee_angle_r	knee_angle_r_beta	ankle_angle_r	subtalar_angle_r	mtp_angle_r	hip_flexion_l	hip_adduction_l	hip_rotation_l	knee_angle_l	knee_angle_l_beta	ankle_angle_l	subtalar_angle_l	mtp_angle_l
      7.50000000	     -8.70038242	      4.18273904	     -1.53203217	      2.16935892	      0.98606552	      0.98694429	     -9.48372597	     -3.94931186	     -6.89856665	     21.06089450	      0.36758195	    -15.83222859	      1.96585610	      0.00000000	     29.41930641	      1.05428970	     -6.22887734	     30.12622606	      0.52580184	      5.14283477	      3.82400908	      0.00000000
      7.50666667	     -9.04922532	      4.08849087	     -1.29312368	      2.17010839	      0.98619665	      0.98598642	     -9.22807976	     -4.06529377	     -7.16866312	     22.21647080	      0.38775056	    -17.44826152	      1.58317421	      0.00000000	     29.21010447	      1.20125965	     -6.55730085	     26.70478456	      0.46608642	      5.54549536	      5.20412116	      0.00000000
      7.51333333	     -9.18973277	      4.16867751	     -1.23524801	      2.17073002	      0.98608517	      0.98520429	     -8.98360381	     -4.42869860	     -7.29082633	     23.75248084	      0.41455900	    -18.72793011	      1.15234261	      0.00000000	     28.70683808	      1.48926935	     -7.02013615	     23.33779862	      0.40732143	      5.86035182	      6.41818886	      0.00000000
      7.52000000	     -9.38476811	      4.24277353	     -1.07723693	      2.17134846	      0.98536461	      0.98429595	     -8.61438658	     -4.77116622	     -7.45518211	     25.46024649	      0.44436513	    -19.86992376	      0.62737769	      0.00000000	     28.29919985	      1.85089371	     -7.27828034	     20.27499420	      0.35386540	      6.22866005	      7.57394864	      0.00000000
      7.52666667	     -9.51305795	      4.39595167	     -0.96184842	      2.17184631	      0.98418460	      0.98345596	     -8.18426168	     -5.21505829	     -7.55776270	     27.42355776	      0.47863138	    -20.72161200	      0.10268983	      0.00000000	     27.84499511	      2.29541468	     -7.48920984	     17.50679898	      0.30555128	      6.51209226	      8.51124339	      0.00000000
      7.53333333	     -9.61628627	      4.56903172	     -0.76454713	      2.17226752	      0.98251306	      0.98256725	     -7.71574345	     -5.64504974	     -7.61403487	     29.54230344	      0.51561046	    -21.31625462	     -0.46590109	      0.00000000	     27.43779969	      2.79390872	     -7.56620023	     15.16264400	      0.26463806	      6.76885559	      9.29113399	      0.00000000
      7.54000000	     -9.66769195	      4.84426960	     -0.62992608	      2.17254923	      0.98041097	      0.98180478	     -7.17698746	     -6.20903394	     -7.62728771	     31.88408503	      0.55648226	    -21.54813199	     -0.96050793	      0.00000000	     27.04348880	      3.35913107	     -7.67439810	     13.23590596	      0.23101014	      6.74816563	      9.65417738	      0.00000000
      7.54666667	     -9.71872964	      5.20391639	     -0.44613097	      2.17268218	      0.97785093	      0.98101301	     -6.55338432	     -6.84889612	     -7.61144948	     34.38952287	      0.60021040	    -21.43694449	     -1.35539785	      0.00000000	     26.74779398	      4.02290550	     -7.69088565	     11.81010535	      0.20612522	      6.48331217	      9.62937670	      0.00000000
      7.55333333	     -9.74372691	      5.61287905	     -0.14867301	      2.17268361	      0.97487158	      0.98013756	     -5.91057834	     -7.50332923	     -7.60633783	     36.99952121	      0.64576347	    -21.03388269	     -1.71931191	      0.00000000	     26.56720360	      4.75815279	     -7.59435583	     10.98582393	      0.19173880	      6.05018820	      9.26931177	      0.00000000
      7.56000000	     -9.62432791	      6.10394966	      0.12768996	      2.17261222	      0.97176283	      0.97936117	     -5.38858599	     -8.16849016	     -7.39330971	     39.61047798	      0.69133326	    -20.55368690	     -2.45007667	      0.00000000	     26.39596694	      5.50327548	     -7.82144672	     10.84241251	      0.18923580	      5.53316260	      9.07789232	      0.00000000
      7.56666667	     -9.62996121	      6.62256340	      0.48018131	      2.17223422	      0.96810462	      0.97851134	     -4.60843878	     -8.87255345	     -7.23012962	     42.42997192	      0.74054271	    -19.69815304	     -2.84876935	      0.00000000	     26.54177324	      6.27371262	     -7.95140018	     11.37609170	      0.19855026	      4.87240485	      8.36578481	      0.00000000
      7.57333333	     -9.53880226	      7.20617494	      0.87316799	      2.17176627	      0.96426357	      0.97768066	     -3.88594043	     -9.59780298	     -7.00492649	     45.28990633	      0.79045798	    -18.79912742	     -3.42205691	      0.00000000	     26.71087865	      7.09273872	     -8.07568292	     12.50670366	      0.21828316	      4.22561244	      7.44675045	      0.00000000
      7.58000000	     -9.37045244	      7.81834837	      1.29656530	      2.17111675	      0.96023607	      0.97687475	     -3.17861801	    -10.31925592	     -6.74738053	     48.19639552	      0.84118579	    -17.87566836	     -4.07615221	      0.00000000	     26.92086944	      7.92800022	     -8.11947138	     14.20342846	      0.24789659	      3.76465119	      6.25051254	      0.00000000
      7.58666667	     -9.30890170	      8.42511646	      1.75685400	      2.17017623	      0.95581374	      0.97606954	     -2.24482921	    -11.04582552	     -6.49419838	     51.22769356	      0.89409192	    -16.89477734	     -4.68708930	      0.00000000	     27.36739727	      8.75295835	     -8.03479802	     16.42622617	      0.28669173	      3.62118691	      4.81856155	      0.00000000
      7.59333333	     -9.16630744	      9.01290643	      2.24043748	      2.16908760	      0.95132424	      0.97529816	     -1.32980540	    -11.71669275	     -6.20222938	     54.27177701	      0.94722120	    -15.96724158	     -5.41774074	      0.00000000	     27.77172553	      9.57209466	     -7.79218642	     18.99350962	      0.33149928	      3.84640090	      3.31269601	      0.00000000
      7.60000000	     -8.99911911	      9.58910184	      2.68228193	      2.16777062	      0.94675014	      0.97462704	     -0.32934035	    -12.36703134	     -5.83835658	     57.34999430	      1.00094623	    -15.15896356	     -6.21661069	      0.00000000	     28.16884743	     10.37846068	     -7.41481907	     21.79552681	      0.38040371	      4.59776194	      1.75200849	      0.00000000
      7.60666667	     -8.84044979	     10.13835367	      3.12511026	      2.16628871	      0.94219733	      0.97400396	      0.76829606	    -12.97881643	     -5.43850809	     60.42112538	      1.05454758	    -14.43981917	     -7.07986497	      0.00000000	     28.53691455	     11.18379791	     -6.89414439	     24.66464424	      0.43047925	      5.72208841	      0.27743539	      0.00000000
